<svg xmlns="http://www.w3.org/2000/svg" viewBox="0 0 600 600"><defs><linearGradient id="a"><stop stop-color="#7b543b"/><stop offset=".5" stop-color="#a87d58"/><stop offset="1" stop-color="#66442f"/></linearGradient><linearGradient id="b"><stop stop-color="#a7916b"/><stop offset=".35" stop-color="#ede0bc"/><stop offset=".7" stop-color="#b69e75"/><stop offset="1" stop-color="#f2e4be"/></linearGradient><filter id="s"><feGaussianBlur stdDeviation="11"/></filter></defs><ellipse cx="308" cy="505" rx="85" ry="15" fill="#77644b" opacity=".18" filter="url(#s)"/><g transform="rotate(-20 300 300)"><rect x="249" y="77" width="102" height="446" rx="33" fill="url(#a)"/><rect x="259" y="86" width="82" height="428" rx="23" fill="none" stroke="#d6b38a" stroke-width="2" stroke-dasharray="4 5"/><path d="M242 232v-29h116v29m-116 136v29h116v-29" fill="url(#b)"/><rect x="398" y="286" width="16" height="28" rx="4" fill="url(#b)"/><circle cx="300" cy="300" r="106" fill="url(#b)"/><circle cx="300" cy="300" r="94" fill="#f5f0df"/><circle cx="300" cy="300" r="83" fill="none" stroke="#d6ccb6" stroke-width="1"/><path d="M300 225v12m0 126v12m75-75h-12m-126 0h-12m128-53-8 8m-90 90-8 8m106 0-8-8m-90-90-8-8" stroke="#8b8068" stroke-width="3"/><path d="M300 245v55l43 25" fill="none" stroke="#403e36" stroke-width="5" stroke-linecap="round"/><circle cx="300" cy="300" r="6" fill="#9c8058"/><text x="300" y="274" text-anchor="middle" fill="#8b8068" font-family="Arial,sans-serif" letter-spacing="3" font-size="8">CLASSIC</text></g></svg>
